<?xml version="1.0" encoding="UTF-8" standalone="no"?>
<!-- Created with Inkscape (http://www.inkscape.org/) -->

<svg
   width="66.145836mm"
   height="66.145836mm"
   viewBox="0 0 66.145836 66.145836"
   version="1.1"
   id="svg1"
   sodipodi:docname="favicon.svg"
   inkscape:version="1.3 (0e150ed6c4, 2023-07-21)"
   xmlns:inkscape="http://www.inkscape.org/namespaces/inkscape"
   xmlns:sodipodi="http://sodipodi.sourceforge.net/DTD/sodipodi-0.dtd"
   xmlns="http://www.w3.org/2000/svg"
   xmlns:svg="http://www.w3.org/2000/svg">
  <sodipodi:namedview
     id="namedview1"
     pagecolor="#ffffff"
     bordercolor="#666666"
     borderopacity="1.0"
     inkscape:showpageshadow="2"
     inkscape:pageopacity="0.0"
     inkscape:pagecheckerboard="0"
     inkscape:deskcolor="#d1d1d1"
     inkscape:document-units="mm"
     inkscape:zoom="1.4142136"
     inkscape:cx="138.59293"
     inkscape:cy="98.994947"
     inkscape:window-width="1920"
     inkscape:window-height="1017"
     inkscape:window-x="2552"
     inkscape:window-y="352"
     inkscape:window-maximized="1"
     inkscape:current-layer="layer1" />
  <defs
     id="defs1" />
  <g
     inkscape:label="Layer 1"
     inkscape:groupmode="layer"
     id="layer1"
     transform="translate(-60.691271,-97.317789)">
    <rect
       style="fill:#1a1a1a;stroke:#1a1a1a;stroke-width:7.64584;stroke-linecap:round;stroke-linejoin:round;stroke-dasharray:none;stroke-dashoffset:0.094488;stroke-opacity:1;paint-order:markers stroke fill"
       id="rect10"
       width="58.499992"
       height="58.499992"
       x="64.514191"
       y="101.14071" />
    <path
       style="-inkscape-font-specification:'Arial Rounded MT Bold, ';fill:#ffffff;stroke-width:0.545365"
       d="m 81.503806,133.78788 h -6.180828 v 9.43031 q 0,2.0224 -0.954393,3.06769 -0.954392,1.04529 -2.408705,1.04529 -1.522483,0 -2.454152,-1.02257 -0.931669,-1.04528 -0.931669,-3.04496 v -25.67771 q 0,-2.22691 1.022564,-3.18131 1.022563,-0.95439 3.249479,-0.95439 h 8.657704 q 3.840294,0 5.908144,0.59082 2.045127,0.56809 3.522163,1.88606 1.49976,1.31797 2.272363,3.22675 0.772604,1.90879 0.772604,4.29477 0,5.09009 -3.135861,7.72604 -3.135862,2.61321 -9.339413,2.61321 z M 79.867704,118.5176 h -4.544726 v 10.18019 h 4.544726 q 2.385982,0 3.976636,-0.49992 1.613378,-0.49992 2.454152,-1.6361 0.840775,-1.13618 0.840775,-2.9768 0,-2.20419 -1.295247,-3.59033 -1.454313,-1.47704 -5.976316,-1.47704 z m 35.905306,0.13634 h -13.29333 v 8.52137 h 11.11186 q 1.54521,0 2.29509,0.70443 0.7726,0.68171 0.7726,1.84061 0,1.15891 -0.7726,1.84062 -0.77261,0.68171 -2.29509,0.68171 h -11.11186 v 10.97551 q 0,2.09057 -0.95439,3.11314 -0.93167,0.99984 -2.408704,0.99984 -1.49976,0 -2.454153,-1.02257 -0.931669,-1.02256 -0.931669,-3.09041 v -25.63226 q 0,-1.45431 0.431749,-2.36325 0.431749,-0.93167 1.340695,-1.3407 0.931669,-0.43175 2.363257,-0.43175 h 15.906545 q 1.61338,0 2.38598,0.72716 0.79533,0.70443 0.79533,1.86334 0,1.18163 -0.79533,1.90878 -0.7726,0.70443 -2.38598,0.70443 z"
       id="text1"
       aria-label="PF" />
  </g>
</svg>
